{
  "accessors": [
    {
      "bufferView": 2,
      "componentType": 5126,
      "count": 35,
      "max": [
        0.16452999413013458,
        0.15582099556922913,
        0.11103600263595581
      ],
      "min": [
        -0.1302099972963333,
        -0.13891500234603882,
        0.11089800298213959
      ],
      "type": "VEC3"
    },
    {
      "bufferView": 2,
      "byteOffset": 420,
      "componentType": 5126,
      "count": 35,
      "max": [
        9.999998292187229e-05,
        0.0004999999655410647,
        -0.9999998807907104
      ],
      "min": [
        -0.0,
        0.00039999998989515007,
        -1.0
      ],
      "type": "VEC3"
    },
    {
      "bufferView": 1,
      "componentType": 5126,
      "count": 35,
      "max": [
        1.09375,
        1.0566409826278687
      ],
      "min": [
        -0.0703129991889,
        -0.16992199420928955
      ],
      "type": "VEC2"
    },
    {
      "bufferView": 0,
      "componentType": 5125,
      "count": 48,
      "type": "SCALAR"
    },
    {
      "bufferView": 2,
      "byteOffset": 840,
      "componentType": 5126,
      "count": 84,
      "max": [
        0.16452999413013458,
        0.1559150069952011,
        0.11103600263595581
      ],
      "min": [
        -0.1302099972963333,
        -0.13891500234603882,
        -0.09410099685192108
      ],
      "type": "VEC3"
    },
    {
      "bufferView": 2,
      "byteOffset": 1848,
      "componentType": 5126,
      "count": 84,
      "max": [
        0.9946713447570801,
        0.9946712255477905,
        0.0006000109133310616
      ],
      "min": [
        -0.994139552116394,
        -0.9941287636756897,
        -0.000900006212759763
      ],
      "type": "VEC3"
    },
    {
      "bufferView": 1,
      "byteOffset": 280,
      "componentType": 5126,
      "count": 84,
      "max": [
        0.9667969942092896,
        0.9824219942092896
      ],
      "min": [
        0.0,
        0.0
      ],
      "type": "VEC2"
    },
    {
      "bufferView": 0,
      "byteOffset": 192,
      "componentType": 5125,
      "count": 96,
      "type": "SCALAR"
    }
  ],
  "asset": {
    "extras": {
      "author": "kylewithem (https://sketchfab.com/kylewithem)",
      "license": "CC-BY-4.0 (http://creativecommons.org/licenses/by/4.0/)",
      "source": "https://sketchfab.com/3d-models/nintendo-64-super-mario-64-warp-pipe-f0e5be9f20f8444db41ea32ec053425e",
      "title": "Nintendo 64 - Super Mario 64 - Warp Pipe"
    },
    "generator": "Sketchfab-13.83.0",
    "version": "2.0"
  },
  "bufferViews": [
    {
      "buffer": 0,
      "byteLength": 576,
      "name": "floatBufferViews",
      "target": 34963
    },
    {
      "buffer": 0,
      "byteLength": 952,
      "byteOffset": 576,
      "byteStride": 8,
      "name": "floatBufferViews",
      "target": 34962
    },
    {
      "buffer": 0,
      "byteLength": 2856,
      "byteOffset": 1528,
      "byteStride": 12,
      "name": "floatBufferViews",
      "target": 34962
    }
  ],
  "buffers": [
    {
      "byteLength": 4384,
      "uri": "scene.bin"
    }
  ],
  "images": [
    {
      "uri": "textures/6C0274DD_c.bmp_baseColor.png"
    },
    {
      "uri": "textures/76A02A69_c.bmp_baseColor.png"
    }
  ],
  "materials": [
    {
      "doubleSided": true,
      "name": "6C0274DD_c.bmp",
      "pbrMetallicRoughness": {
        "baseColorTexture": {
          "index": 0
        },
        "metallicFactor": 0.0
      }
    },
    {
      "doubleSided": true,
      "name": "76A02A69_c.bmp",
      "pbrMetallicRoughness": {
        "baseColorTexture": {
          "index": 1
        },
        "metallicFactor": 0.0
      }
    }
  ],
  "meshes": [
    {
      "name": "Object_0",
      "primitives": [
        {
          "attributes": {
            "NORMAL": 1,
            "POSITION": 0,
            "TEXCOORD_0": 2
          },
          "indices": 3,
          "material": 0,
          "mode": 4
        }
      ]
    },
    {
      "name": "Object_1",
      "primitives": [
        {
          "attributes": {
            "NORMAL": 5,
            "POSITION": 4,
            "TEXCOORD_0": 6
          },
          "indices": 7,
          "material": 1,
          "mode": 4
        }
      ]
    }
  ],
  "nodes": [
    {
      "children": [
        1
      ],
      "matrix": [
        1.0,
        0.0,
        0.0,
        0.0,
        0.0,
        2.220446049250313e-16,
        -1.0,
        0.0,
        0.0,
        1.0,
        2.220446049250313e-16,
        0.0,
        0.0,
        0.0,
        0.0,
        1.0
      ],
      "name": "Sketchfab_model"
    },
    {
      "children": [
        2,
        3
      ],
      "name": "Pipe.obj.cleaner.materialmerger.gles"
    },
    {
      "mesh": 0,
      "name": "Object_2"
    },
    {
      "mesh": 1,
      "name": "Object_3"
    }
  ],
  "samplers": [
    {
      "magFilter": 9729,
      "minFilter": 9987,
      "wrapS": 10497,
      "wrapT": 10497
    }
  ],
  "scene": 0,
  "scenes": [
    {
      "name": "Sketchfab_Scene",
      "nodes": [
        0
      ]
    }
  ],
  "textures": [
    {
      "sampler": 0,
      "source": 0
    },
    {
      "sampler": 0,
      "source": 1
    }
  ]
}
